<svg xmlns="http://www.w3.org/2000/svg" xmlns:xlink="http://www.w3.org/1999/xlink" width="500" zoomAndPan="magnify" viewBox="0 0 375 374.999991" height="500" preserveAspectRatio="xMidYMid meet" version="1.0"><defs><clipPath id="65c6cacc9c"><path d="M 0 0 L 374.984375 0 L 374.984375 329 L 0 329 Z M 0 0 " clip-rule="nonzero"/></clipPath><clipPath id="80e7dc454e"><path d="M 148 260.472656 L 310.546875 260.472656 L 310.546875 374.984375 L 148 374.984375 Z M 148 260.472656 " clip-rule="nonzero"/></clipPath></defs><rect x="-37.5" width="450" fill="#ffffff" y="-37.499999" height="449.999989" fill-opacity="1"/><rect x="-37.5" width="450" fill="#ffffff" y="-37.499999" height="449.999989" fill-opacity="1"/><rect x="-37.5" width="450" fill="#ffffff" y="-37.499999" height="449.999989" fill-opacity="1"/><g clip-path="url(#65c6cacc9c)"><path fill="#00bf63" d="M 161.792969 51.527344 C 161.792969 51.527344 191.449219 68.492188 190.335938 96.796875 C 184.65625 96.265625 179.324219 96.054688 174.476562 96.054688 C 169.289062 96.054688 164.683594 96.292969 160.832031 96.613281 C 162.066406 86.789062 160.273438 77.125 155.539062 67.945312 C 157.757812 62.585938 159.855469 57.128906 161.792969 51.527344 Z M 53.367188 202.457031 C 53.367188 202.457031 53.371094 202.457031 53.371094 202.457031 C 69.945312 145.085938 105.011719 102.804688 124.324219 46.929688 C 124.324219 46.929688 164.082031 69.667969 149.8125 106.414062 C 149.8125 106.414062 208.351562 94 258.148438 130.023438 C 287.382812 151.175781 305.082031 151.210938 314.21875 150.566406 C 317.375 150.339844 321.898438 150.863281 324.570312 153.652344 C 327.5625 156.777344 328.226562 162.746094 322.035156 173.6875 C 322.035156 173.6875 327.175781 194.554688 307.914062 219.917969 C 307.914062 219.917969 305.664062 247.851562 268.742188 254.898438 C 246.695312 259.109375 214.351562 258.742188 197.683594 270.109375 C 190.1875 275.21875 185.269531 291.082031 202.824219 297.933594 C 234.402344 310.257812 280.722656 309.738281 310.546875 328.949219 C 350.027344 294.574219 374.984375 243.949219 374.984375 187.492188 C 374.984375 83.945312 291.042969 0 187.492188 0 C 83.941406 0 0 83.945312 0 187.492188 C 0 231.875 15.433594 272.648438 41.210938 304.761719 C 37.0625 275.070312 41.007812 234.253906 53.367188 202.457031 " fill-opacity="1" fill-rule="nonzero"/></g><g clip-path="url(#80e7dc454e)"><path fill="#acfad5" d="M 202.824219 297.933594 C 185.269531 291.082031 190.1875 275.21875 197.683594 270.109375 C 204.921875 265.171875 215.171875 262.683594 226.230469 260.996094 C 188.910156 258.550781 162.402344 273.515625 152.339844 298.96875 C 142.28125 324.417969 150.898438 356.015625 172.484375 372.835938 C 173.246094 373.429688 174.023438 373.992188 174.804688 374.546875 C 179 374.828125 183.226562 374.984375 187.492188 374.984375 C 234.582031 374.984375 277.613281 357.621094 310.546875 328.949219 C 280.722656 309.738281 234.402344 310.257812 202.824219 297.933594 " fill-opacity="1" fill-rule="nonzero"/></g></svg>