<svg xmlns="http://www.w3.org/2000/svg" xmlns:xlink="http://www.w3.org/1999/xlink" width="500" zoomAndPan="magnify" viewBox="0 0 375 374.999991" height="500" preserveAspectRatio="xMidYMid meet" version="1.0"><defs><clipPath id="d4a9f23807"><path d="M 0 8.671875 L 375 8.671875 L 375 366.421875 L 0 366.421875 Z M 0 8.671875 " clip-rule="nonzero"/></clipPath></defs><g clip-path="url(#d4a9f23807)"><path fill="#8fce93" d="M 187.5 8.671875 C 84.039062 8.671875 0.167969 92.566406 0.167969 196.054688 C 0.167969 271.691406 44.96875 336.859375 109.472656 366.457031 C 110.132812 362.46875 110.875 358.417969 111.601562 355.890625 C 113.136719 350.550781 113.886719 343.144531 113.886719 343.144531 L 116.210938 331.535156 L 118.175781 315.371094 C 118.175781 315.371094 119.566406 307.75 120.214844 302.828125 C 120.394531 301.433594 120.652344 300.304688 120.894531 299.25 C 121.578125 296.246094 122.113281 293.898438 120.316406 288.023438 C 118.496094 282.066406 116.839844 274.507812 115.714844 266.582031 C 93.539062 269.578125 71.960938 274.90625 54.777344 283.753906 C 71.847656 274.042969 93.453125 267.640625 115.34375 263.773438 C 115.292969 263.363281 115.242188 262.953125 115.195312 262.539062 C 89.058594 261.710938 61.46875 264.019531 40.242188 273.039062 C 61.445312 262.914062 89.265625 259.164062 114.832031 259.082031 C 114.8125 258.875 114.792969 258.667969 114.773438 258.460938 C 114.761719 258.332031 114.75 258.207031 114.738281 258.078125 L 114.652344 257.078125 C 92.304688 254.296875 69.203125 254.027344 50.332031 259.210938 C 69.175781 253.15625 92.417969 252.277344 114.398438 254.140625 C 113.910156 248.351562 113.636719 243.476562 114.417969 238.542969 C 115.316406 232.867188 115.363281 225.414062 114.539062 220.097656 C 114.183594 217.796875 113.707031 213.367188 113.480469 210.253906 C 113.199219 206.378906 112.460938 201.980469 111.136719 196.308594 C 107.957031 182.667969 107.785156 167.226562 107.785156 167.226562 C 107.785156 167.226562 106.746094 152.203125 113.488281 149.199219 C 118.628906 146.914062 122.398438 148.761719 127.640625 151.898438 C 133.925781 155.664062 141.609375 162.507812 150.257812 172.042969 C 153.761719 175.90625 157.59375 179.695312 158.777344 180.464844 C 161.296875 182.105469 165.320312 183.28125 168.496094 183.304688 C 169.765625 183.3125 172.964844 182.78125 176.914062 182.125 L 176.917969 182.121094 C 183.140625 181.085938 191.230469 179.742188 196.589844 179.707031 C 203.328125 179.667969 209.253906 181.179688 213.910156 182.367188 C 217.492188 183.28125 220.324219 184.003906 222.199219 183.683594 L 222.304688 183.664062 L 222.734375 183.59375 L 222.742188 183.589844 L 222.902344 183.566406 C 228.421875 182.632812 229.152344 182.511719 240.164062 171.820312 C 253.878906 158.511719 261.65625 152.773438 268.738281 150.75 C 274.789062 149.019531 279.449219 151.035156 281.085938 156.082031 C 282.464844 160.328125 281.269531 171.453125 278.105469 183.855469 C 277.726562 185.328125 276.515625 189.445312 275.414062 193.003906 C 271.847656 204.488281 269.910156 212.976562 269.167969 220.359375 C 268.917969 222.871094 268.34375 227.367188 267.898438 230.359375 C 267.191406 235.097656 267.59375 241.3125 267.59375 241.3125 C 267.59375 241.3125 267.894531 248.554688 267.660156 254.773438 C 287.449219 253.949219 307.71875 255.519531 324.429688 261.15625 C 307.695312 256.300781 287.539062 255.722656 267.519531 257.394531 C 267.445312 258.472656 267.34375 259.46875 267.21875 260.335938 C 290.675781 261.390625 315.253906 265.679688 334.324219 275.125 C 315.152344 266.652344 290.640625 263.648438 266.703125 263.519531 C 266.578125 264.378906 266.449219 265.292969 266.332031 266.21875 C 285.730469 270.4375 304.515625 276.742188 319.640625 285.628906 C 304.410156 277.515625 285.628906 272.152344 266.023438 268.738281 C 265.90625 269.785156 265.804688 270.777344 265.734375 271.632812 C 265.207031 277.828125 264.652344 279.519531 260.039062 289.015625 C 257.652344 293.929688 259.265625 297.332031 261.257812 301.519531 C 261.730469 302.511719 262.222656 303.550781 262.6875 304.664062 C 271.632812 326.039062 274 331.949219 279.714844 352.390625 C 280.277344 354.398438 280.894531 356.308594 281.535156 358.15625 C 337.324219 325.703125 374.832031 265.261719 374.832031 196.054688 C 374.832031 92.566406 290.960938 8.671875 187.5 8.671875 Z M 187.5 8.671875 " fill-opacity="1" fill-rule="nonzero"/></g><path fill="#8fce93" d="M 171.625 272.179688 C 175.757812 277.507812 186.15625 283.574219 194.820312 270.25 C 199.382812 275.773438 206.507812 283.113281 216.855469 271.496094 C 216.152344 272.523438 215.554688 273.523438 214.984375 274.46875 C 213.082031 277.636719 211.515625 280.242188 207.625 281.535156 C 204.96875 282.414062 202.890625 281.660156 200.691406 280.863281 C 199 280.246094 197.238281 279.609375 195.09375 279.671875 C 192.871094 279.734375 191.109375 280.492188 189.414062 281.222656 C 187.257812 282.148438 185.210938 283.027344 182.464844 282.367188 C 177.699219 281.226562 175.035156 277.238281 172.820312 273.929688 C 172.410156 273.316406 172.015625 272.722656 171.625 272.179688 Z M 171.625 272.179688 " fill-opacity="1" fill-rule="nonzero"/></svg>